# AST/ASF file generated using VICON BodyLanguage
# -----------------------------------------------
:version 1.10
:name VICON
:units
  mass 1.0
  length 0.45
  angle deg
:documentation
   .ast/.asf automatically generated from VICON data using
   VICON BodyBuilder and BodyLanguage model FoxedUp or BRILLIANT.MOD
:root
   order TX TY TZ RX RY RZ
   axis XYZ
   position 0 0 0  
   orientation 0 0 0 
:bonedata
  begin
     id 1 
     name lhipjoint
     direction 0.560651 -0.75055 0.34978 
     length 2.44936 
     axis 0 0 0  XYZ
  end
  begin
     id 2 
     name lfemur
     direction 0.34202 -0.939693 0  
     length 7.42139  
     axis 0 0 20  XYZ
    dof rx ry rz
    limits (-160.0 20.0)
           (-70.0 70.0)
           (-60.0 70.0)
  end
  begin
     id 3 
     name ltibia
     direction 0.34202 -0.939693 0   
     length 7.75674   
     axis 0 0 20   XYZ
    dof rx
    limits (-10.0 170.0)
  end
  begin
     id 4 
     name lfoot
     direction 0.0925879 -0.254383 0.962661   
     length 2.38688   
     axis -90 7.62852e-016 20   XYZ
    dof rx rz
    limits (-45.0 90.0)
           (-70.0 20.0)
  end
  begin
     id 5 
     name ltoes
     direction 1.53567e-011 -4.21973e-011 1   
     length 1.19228   
     axis -90 7.62852e-016 20   XYZ
    dof rx
    limits (-90.0 20.0)
  end
  begin
     id 6 
     name rhipjoint
     direction -0.540087 -0.762838 0.355506   
     length 2.4099  
     axis 0 0 0  XYZ 
  end
  begin
     id 7 
     name rfemur
     direction -0.34202 -0.939693 0   
     length 7.70794   
     axis 0 0 -20   XYZ
    dof rx ry rz
    limits (-160.0 20.0)
           (-70.0 70.0)
           (-70.0 60.0)
  end
  begin
     id 8 
     name rtibia
     direction -0.34202 -0.939693 0   
     length 7.66106   
     axis 0 0 -20   XYZ
    dof rx
    limits (-10.0 170.0)
 end
 begin
     id 9 
     name rfoot
     direction -0.0830975 -0.228308 0.970036   
     length 2.4989  
     axis -90 -7.62852e-016 -20   XYZ
    dof rx rz
    limits (-45.0 90.0)
           (-20.0 70.0)
  end
  begin
     id 10 
     name rtoes
     direction -1.53517e-011 -4.21842e-011 1   
     length 1.2498   
     axis -90 -7.62852e-016 -20   XYZ
    dof rx
    limits (-90.0 20.0)
  end
  begin
     id 11 
     name lowerback
     direction 0.0266356 0.99402 -0.105896   
     length 2.1545   
     axis 0 0 0   XYZ
    dof rx ry rz
    limits (-20.0 45.0)
           (-30.0 30.0)
           (-30.0 30.0)
  end
  begin
     id 12 
     name upperback
     direction 0.0130547 0.999192 0.0380027   
     length 2.1434   
     axis 0 0 0   XYZ
    dof rx ry rz
    limits (-20.0 45.0)
           (-30.0 30.0)
           (-30.0 30.0)
  end
  begin
     id 13 
     name thorax
     direction 0.000590299 0.996288 0.0860764   
     length 2.19049   
     axis 0 0 0   XYZ
    dof rx ry rz
    limits (-20.0 45.0)
           (-30.0 30.0)
           (-30.0 30.0)
  end
  begin
     id 14 
     name lowerneck
     direction -0.0432125 0.978219 0.203028   
     length 1.62441   
     axis 0 0 0   XYZ
    dof rx ry rz
    limits (-20.0 45.0)
           (-30.0 30.0)
           (-30.0 30.0)
  end
  begin
     id 15 
     name upperneck
     direction -0.0192309 0.991699 -0.127138   
     length 1.66666   
     axis 0 0 0   XYZ
    dof rx ry rz
    limits (-20.0 45.0)
           (-30.0 30.0)
           (-30.0 30.0)
  end
  begin
     id 16
     name head
     direction -0.00434499 0.997882 -0.0649107  
     length 1.67142  
     axis 0 0 0   XYZ
    dof rx ry rz
    limits (-20.0 45.0)
           (-30.0 30.0)
           (-30.0 30.0)
  end
  begin
     id 17 
     name lclavicle
     direction 0.970351 0.240904 -0.0196058  
     length 4.04862  
     axis 0 0 0   XYZ
    dof ry rz
    limits (-20.0 10.0)
           (0.0 20.0)
  end
  begin
     id 18 
     name lhumerus
     direction 1 -4.4896e-011 -1.40911e-018   
     length 5.58345   
     axis 180 -30 -90   XYZ
    dof rx ry rz
    limits (-60.0 90.0)
           (-90.0 90.0)
           (-90.0 90.0)
  end
  begin
     id 19
     name lradius
     direction 1 -4.48968e-011 5.88912e-028   
     length 3.71087   
     axis 180 -30 -90   XYZ
    dof rx
    limits (-10.0 170.0)
  end
  begin
     id 20
     name lwrist
     direction 1 -4.48955e-011 -8.83775e-028   
     length 1.85544   
     axis 5.52448e-016 90 90   XYZ
    dof ry
    limits (-180.0 0.0)
 end
  begin
     id 21 
     name lhand
     direction 1 -4.49035e-011 -1.76755e-027   
     length 0.562322   
     axis 1.12785e-015 90 90   XYZ
    dof rx rz
    limits (-90.0 90.0)
           (-45.0 45.0)
  end
  begin
     id 22 
     name lfingers
     direction 1 -4.48824e-011 -3.5351e-027   
     length 0.453359   
     axis 2.2557e-015 90 90   XYZ
    dof rx
    limits (0.0 90.0)
  end
  begin
     id 23
     name lthumb
     direction 0.707107 -6.34888e-011 0.707107   
     length 0.650935   
     axis -90 45 2.85299e-015   XYZ
    dof rx rz
    limits (-45.0 45.0)
           (-45.0 45.0)
  end
  begin
     id 24 
     name rclavicle
     direction -0.96165 0.268562 -0.0557131   
     length 4.05446  
     axis 0 0 0   XYZ 
    dof ry rz
    limits (-10.0 20.0)
           (-20.0 0.0)
  end
  begin
     id 25 
     name rhumerus
     direction -1 -4.48957e-011 -3.36329e-027  
     length 5.20357   
     axis 180 30 90   XYZ
    dof rx ry rz
    limits (-90.0 60.0)
           (-90.0 90.0)
           (-90.0 90.0)
  end
  begin
     id 26 
     name rradius
     direction -1 -4.48974e-011 4.51441e-027   
     length 3.64937   
     axis 180 30 90   XYZ
    dof rx
    limits (-10.0 170.0)
  end
  begin
     id 27 
     name rwrist
     direction -1 -4.4896e-011 -8.83775e-028   
     length 1.82468   
     axis 5.52448e-016 -90 -90   XYZ
    dof ry
    limits (-180.0 0.0)
  end
  begin
     id 28
     name rhand
     direction -1 -4.48996e-011 -1.76755e-027   
     length 0.617996   
     axis 1.12785e-015 -90 -90   XYZ
    dof rx rz
    limits (-90.0 90.0)
           (-45.0 45.0)
  end
  begin
     id 29
     name rfingers
     direction -1 -4.48957e-011 -3.5351e-027   
     length 0.498244   
     axis 2.2557e-015 -90 -90   XYZ
    dof rx
    limits (0.0 90.0)
  end
  begin
     id 30
     name rthumb
     direction -0.707107 -6.34931e-011 0.707107   
     length 0.715382   
     axis -90 -45 -2.85299e-015   XYZ
    dof rx rz
    limits (-45.0 45.0)
           (-45.0 45.0)
  end
:hierarchy
  begin
    root lhipjoint rhipjoint lowerback
    lhipjoint lfemur
    lfemur ltibia
    ltibia lfoot
    lfoot ltoes
    rhipjoint rfemur
    rfemur rtibia
    rtibia rfoot
    rfoot rtoes
    lowerback upperback
    upperback thorax
    thorax lowerneck lclavicle rclavicle
    lowerneck upperneck
    upperneck head
    lclavicle lhumerus
    lhumerus lradius
    lradius lwrist
    lwrist lhand lthumb
    lhand lfingers
    rclavicle rhumerus
    rhumerus rradius
    rradius rwrist
    rwrist rhand rthumb
    rhand rfingers
  end

#!OML:ASF H:\ManfredETheater\Project 1\Capture day 2\Session 1\Male1.ASF
:FULLY-SPECIFIED
:DEGREES
190
root -9.01468 4.58565 -17.0374 174.015 -6.61854 158.966
lowerback 42.459 1.73078 -1.63544
upperback 10.7305 -2.81806 -0.74336
thorax -8.12426 -3.00269 1.45576
lowerneck -18.3039 7.94296 2.50728
upperneck 10.7965 11.4133 -8.69695
head 6.95361 4.79525 -1.90021
rclavicle -2.54444e-014 -1.90833e-014
rhumerus -12.911 4.05878 -72.4743
rradius 45.861
rwrist 36.0614
rhand -63.6311 -15.1881
rfingers 7.12502
rthumb -35.6013 -401.602
lclavicle -2.54444e-014 -1.90833e-014
lhumerus 56.6824 2.63293 19.8265
lradius 50.4506
lwrist -16.2453
lhand -19.6954 8.25038
lfingers 7.12502
lthumb 6.63391 38.1265
rfemur -96.2915 -14.2053 81.4822
rtibia 132.088
rfoot -25.1533 1.20348
rtoes -47.6853
lfemur -110.489 39.0456 -11.6425
ltibia 120.335
lfoot 17.0696 -42.6799
ltoes -11.8192
191
root -9.06095 4.70025 -17.1765 174.909 -6.5975 160.813
lowerback 42.6585 1.51584 -1.21394
upperback 10.901 -2.97705 -0.523529
thorax -7.9872 -3.11396 1.5387
lowerneck -18.3118 8.03501 2.36547
upperneck 9.97642 11.4881 -8.69603
head 6.68491 4.8528 -1.88069
rclavicle -3.65764e-014 -2.54444e-014
rhumerus -11.6959 4.06523 -72.8607
rradius 43.7532
rwrist 35.5405
rhand -64.5979 -16.2899
rfingers 7.12502
rthumb -36.5172 -402.478
lclavicle -3.65764e-014 -2.54444e-014
lhumerus 57.554 2.17283 21.2522
lradius 48.8653
lwrist -16.6103
lhand -19.2915 8.66902
lfingers 7.12502
lthumb 7.02378 38.5325
rfemur -95.8216 -13.1633 81.5918
rtibia 132.141
rfoot -25.2083 2.7167
rtoes -49.0439
lfemur -111.453 38.9664 -10.8415
ltibia 120.91
lfoot 14.1738 -43.3134
ltoes -10.9221
192
root -9.11618 4.81863 -17.317 175.678 -6.62391 162.462
lowerback 42.9351 1.3224 -0.799076
upperback 11.0884 -3.13547 -0.372441
thorax -7.85539 -3.22851 1.55363
lowerneck -18.2933 8.085 2.24449
upperneck 9.27523 11.5058 -8.65591
head 6.44672 4.88443 -1.85917
rclavicle -1.59028e-015 -2.22639e-014
rhumerus -10.5092 3.91439 -73.2432
rradius 41.5464
rwrist 35.2764
rhand -65.4731 -18.3999
rfingers 7.12502
rthumb -37.345 -404.374
lclavicle -1.59028e-015 -2.22639e-014
lhumerus 58.3649 1.4678 22.9011
lradius 47.2825
lwrist -16.5203
lhand -18.9687 9.23459
lfingers 7.12502
lthumb 7.33535 39.0874
rfemur -95.4633 -12.755 81.7619
rtibia 132.309
rfoot -25.3003 4.39701
rtoes -50.4344
lfemur -112.362 39.0683 -10.1198
ltibia 121.597
lfoot 11.5825 -43.731
ltoes -10.5111
193
root -9.18054 4.94069 -17.4576 176.352 -6.66285 163.839
lowerback 43.2927 1.17847 -0.4468
upperback 11.2789 -3.27698 -0.299146
thorax -7.74454 -3.33614 1.51398
lowerneck -18.2969 8.09075 2.11854
upperneck 8.71247 11.4728 -8.57677
head 6.25186 4.88953 -1.82858
rclavicle -4.77083e-014 1.59028e-014
rhumerus -9.36531 3.61537 -73.5859
rradius 39.2439
rwrist 35.2476
rhand -66.2203 -21.6324
rfingers 7.12502
rthumb -38.051 -407.418
lclavicle -4.77083e-014 1.59028e-014
lhumerus 59.1109 0.508268 24.7178
lradius 45.7021
lwrist -15.9809
lhand -18.707 9.9893
lfingers 7.12502
lthumb 7.58794 39.8332
rfemur -95.2488 -12.9361 81.9582
rtibia 132.605
rfoot -25.3543 6.06045
rtoes -51.577
lfemur -113.255 39.2987 -9.6631
ltibia 122.391
lfoot 9.36963 -43.9061
ltoes -10.6895
194
root -9.25359 5.06607 -17.5984 176.98 -6.71285 164.905
lowerback 43.7004 1.08951 -0.188177
upperback 11.4666 -3.39978 -0.299367
thorax -7.65139 -3.43354 1.43861
lowerneck -18.3035 8.05201 1.99548
upperneck 8.2297 11.3883 -8.50915
head 6.08216 4.86565 -1.8071
rclavicle -5.00937e-014 1.43125e-014
rhumerus -8.26391 3.17981 -73.8572
rradius 36.8609
rwrist 35.4067
rhand -66.8166 -25.9245
rfingers 7.12502
rthumb -38.6139 -411.554
lclavicle -5.00937e-014 1.43125e-014
lhumerus 59.774 -0.687332 26.6391
lradius 44.1314
lwrist -15.0835
lhand -18.4373 10.9632
lfingers 7.12502
lthumb 7.84823 40.7975
rfemur -95.2198 -13.6096 82.1375
rtibia 133.033
rfoot -25.3395 7.5961
rtoes -52.3438
lfemur -114.183 39.5646 -9.65139
ltibia 123.269
lfoot 7.68866 -43.8634
ltoes -10.6486
195
root -9.33511 5.19404 -17.739 177.624 -6.77636 165.661
lowerback 44.1221 1.04824 -0.0221638
upperback 11.6337 -3.49809 -0.359764
thorax -7.58488 -3.51318 1.33799
lowerneck -18.3459 7.97338 1.85183
upperneck 7.8204 11.2655 -8.47504
head 5.94169 4.81523 -1.79515
rclavicle 1.27222e-014 1.43125e-014
rhumerus -7.23466 2.61805 -74.0276
rradius 34.4421
rwrist 35.6981
rhand -67.2349 -30.9738
rfingers 7.12502
rthumb -39.0083 -416.491
lclavicle 1.27222e-014 1.43125e-014
lhumerus 60.337 -2.10339 28.6116
lradius 42.5698
lwrist -13.9849
lhand -18.1459 12.0967
lfingers 7.12502
lthumb 8.12954 41.9203
rfemur -95.4148 -14.6261 82.2665
rtibia 133.58
rfoot -25.267 8.96475
rtoes -52.7251
lfemur -115.221 39.807 -10.2019
ltibia 124.239
lfoot 6.20757 -43.4835
ltoes -10.1297
196
root -9.42386 5.32438 -17.879 178.326 -6.87507 166.154
lowerback 44.518 1.0319 0.0885049
upperback 11.7827 -3.57575 -0.451573
thorax -7.53101 -3.57562 1.22327
lowerneck -18.4345 7.86255 1.67531
upperneck 7.44859 11.1173 -8.50878
head 5.82283 4.74164 -1.80012
rclavicle -4.37326e-014 2.14687e-014
rhumerus -6.28482 1.92236 -74.0774
rradius 32.0412
rwrist 36.1011
rhand -67.4652 -36.2163
rfingers 7.12502
rthumb -39.2254 -421.671
lclavicle -4.37326e-014 2.14687e-014
lhumerus 60.779 -3.69197 30.5859
lradius 41.0247
lwrist -12.8829
lhand -17.7582 13.4243
lfingers 7.12502
lthumb 8.50372 43.2331
rfemur -95.8495 -15.8786 82.3522
rtibia 134.212
rfoot -25.1492 10.1824
rtoes -52.8163
lfemur -116.398 39.9664 -11.3233
ltibia 125.285
lfoot 4.65266 -42.7365
ltoes -9.43184
197
root -9.51826 5.45703 -18.0173 179.118 -7.03456 166.459
lowerback 44.8503 1.0112 0.193515
upperback 11.9162 -3.63855 -0.537989
thorax -7.47616 -3.62269 1.10887
lowerneck -18.5952 7.72845 1.42786
upperneck 7.09335 10.9627 -8.62501
head 5.72285 4.65103 -1.81816
rclavicle 3.73715e-014 2.22639e-014
rhumerus -5.4196 1.0977 -73.9874
rradius 29.7112
rwrist 36.5986
rhand -67.5383 -40.9978
rfingers 7.12502
rthumb -39.2943 -426.433
lclavicle 3.73715e-014 2.22639e-014
lhumerus 61.0888 -5.39839 32.5278
lradius 39.4846
lwrist -11.9517
lhand -17.3088 14.8692
lfingers 7.12502
lthumb 8.93738 44.6599
rfemur -96.5178 -17.2903 82.4312
rtibia 134.886
rfoot -25.0048 11.3142
rtoes -52.6602
lfemur -117.692 39.9959 -12.8936
ltibia 126.362
lfoot 3.15903 -41.7018
ltoes -8.33473
198
root -9.61746 5.59174 -18.1534 180.019 -7.27354 166.646
lowerback 45.0976 0.953704 0.348211
upperback 12.0297 -3.69398 -0.597773
thorax -7.42022 -3.65593 0.991715
lowerneck -18.7986 7.57127 1.10625
upperneck 6.73119 10.8003 -8.82992
head 5.62967 4.54399 -1.85221
rclavicle -6.20208e-014 -9.54166e-015
rhumerus -4.65873 0.207231 -73.7429
rradius 27.5114
rwrist 37.11
rhand -67.4887 -44.8476
rfingers 7.12502
rthumb -39.2475 -430.296
lclavicle -6.20208e-014 -9.54166e-015
lhumerus 61.2561 -7.18247 34.4341
lradius 37.9414
lwrist -11.3445
lhand -16.7904 16.3515
lfingers 7.12502
lthumb 9.43758 46.1202
rfemur -97.4042 -18.7729 82.5399
rtibia 135.567
rfoot -24.883 12.3844
rtoes -52.3244
lfemur -119.083 39.8715 -14.7698
ltibia 127.424
lfoot 1.78773 -40.4889
ltoes -7.05082
199
root -9.72128 5.72779 -18.2871 181.032 -7.60121 166.78
lowerback 45.2485 0.835199 0.590359
upperback 12.1241 -3.75235 -0.61322
thorax -7.35973 -3.68014 0.875397
lowerneck -19.0302 7.40334 0.724779
upperneck 6.35531 10.6427 -9.13128
head 5.54068 4.42727 -1.90598
rclavicle -1.03368e-014 -3.97569e-015
rhumerus -4.01528 -0.699032 -73.3545
rradius 25.4981
rwrist 37.6113
rhand -67.3781 -47.8268
rfingers 7.12502
rthumb -39.1434 -433.306
lclavicle -1.03368e-014 -3.97569e-015
lhumerus 61.2655 -8.98708 36.342
lradius 36.3771
lwrist -11.2355
lhand -16.2596 17.7631
lfingers 7.12502
lthumb 9.94973 47.5079
rfemur -98.4955 -20.3032 82.745
rtibia 136.236
rfoot -24.8027 13.4236
rtoes -51.7778
lfemur -120.543 39.5787 -16.808
ltibia 128.422
lfoot 0.565705 -39.1828
ltoes -5.78264
200
root -9.82762 5.86581 -18.4171 182.134 -8.01791 166.915
lowerback 45.3211 0.64143 0.94763
upperback 12.2022 -3.82353 -0.575119
thorax -7.29664 -3.70183 0.760511
lowerneck -19.2499 7.23603 0.323644
upperneck 5.9429 10.4927 -9.53636
head 5.44495 4.30535 -1.98896
rclavicle 9.54166e-015 7.95139e-016
rhumerus -3.48246 -1.54632 -72.8354
rradius 23.7085
rwrist 38.0548
rhand -67.207 -49.6597
rfingers 7.12502
rthumb -38.982 -435.185
lclavicle 9.54166e-015 7.95139e-016
lhumerus 61.0908 -10.7358 38.3668
lradius 34.7819
lwrist -11.7368
lhand -15.7449 19.0158
lfingers 7.12502
lthumb 10.4463 48.7363
rfemur -99.7254 -21.8545 83.0571
rtibia 136.846
rfoot -24.7398 14.5252
rtoes -51.051
lfemur -121.988 39.1211 -18.8352
ltibia 129.298
lfoot -0.347996 -37.9721
ltoes -4.42435
201
root -9.93622 6.00589 -18.5433 183.298 -8.50353 167.067
lowerback 45.3418 0.374777 1.41149
upperback 12.263 -3.91608 -0.492049
thorax -7.23893 -3.72697 0.647052
lowerneck -19.4571 7.08484 -0.0662822
upperneck 5.50628 10.3619 -10.0251
head 5.34696 4.18657 -2.09805
rclavicle 5.08889e-014 1.74931e-014
rhumerus -3.05029 -2.25677 -72.2185
rradius 22.1634
rwrist 38.408
rhand -67.0148 -50.7231
rfingers 7.12502
rthumb -38.8008 -436.3
lclavicle 5.08889e-014 1.74931e-014
lhumerus 60.6899 -12.3535 40.6911
lradius 33.1252
lwrist -12.9558
lhand -15.3382 20.0433
lfingers 7.12502
lthumb 10.8385 49.7436
rfemur -101.036 -23.3937 83.4524
rtibia 137.379
rfoot -24.6746 15.7357
rtoes -50.0859
lfemur -123.36 38.5226 -20.7317
ltibia 130.026
lfoot -0.989189 -36.9731
ltoes -3.16847
